
        <svg xmlns="http://www.w3.org/2000/svg" xmlns:xlink="http://www.w3.org/1999/xlink" version="1.1" width="3181.8181818181824" 
        height="1109.0909090909092" viewBox="0 0 3181.8181818181824 1109.0909090909092">
			
			<g transform="scale(9.090909090909092) translate(10, 10)">
				<defs id="SvgjsDefs2053"></defs><g id="SvgjsG2054" featureKey="symbolContainer" transform="matrix(1,0,0,1,0,0)" fill="#0081c6">    <rect width="110" height="102"></rect></g><g id="SvgjsG2055" featureKey="monogramFeature-0" transform="matrix(1.698204861842151,0,0,1.698204861842151,15.82240949694949,-14.548763948239685)" fill="#ffffff"><path d="M42.24 17.4 c0.84 0 1.44 0.42 1.44 1.14 l0 0.24 c0 1.68 -2.7 2.4 -2.7 5.16 l0 33.24 c0 1.8 -1.02 2.82 -2.76 2.82 l-3.42 0 c-1.38 0 -2.22 -0.72 -3.12 -1.98 l-21.42 -28.44 l0 23.82 c0 2.76 2.82 3.54 2.82 5.22 l0 0.24 c0 0.72 -0.6 1.14 -1.5 1.14 l-7.68 0 c-0.9 0 -1.44 -0.42 -1.44 -1.14 l0 -0.24 c0 -1.68 2.4 -2.46 2.4 -5.22 l0 -29.4 c0 -2.76 -2.4 -3.48 -2.4 -5.22 l0 -0.24 c0 -0.72 0.54 -1.14 1.44 -1.14 l8.94 0 c1.5 0 2.34 0.66 3.24 1.92 l19.5 27.12 l0 -22.5 c0 -2.76 -2.64 -3.48 -2.64 -5.16 l0 -0.24 c0 -0.72 0.6 -1.14 1.44 -1.14 l7.86 0 z"></path></g><g id="SvgjsG2056" featureKey="nameFeature-0" transform="matrix(2.4962557687063014,0,0,2.4962557687063014,124.00898294127461,-13.956572630469129)" fill="#48466d"><path d="M21.92 12 l3.32 0 l0 28 l-2.56 0 l-16.96 -21.92 l0 21.92 l-3.32 0 l0 -28 l2.56 0 l16.96 21.96 l0 -21.96 z M52.68 12 l3.52 0 l-12.52 28 l-2.76 0 l-12.48 -28 l3.52 0 l10.36 23.64 z M82.52 37 c-2.56 2.2 -5.8 3.4 -9.4 3.4 c-7.28 0 -14.32 -5.92 -14.32 -14.4 s7.04 -14.4 14.32 -14.4 c3.56 0 6.76 1.2 9.28 3.32 l-2.04 2.32 c-1.96 -1.56 -4.48 -2.48 -7 -2.48 c-5.72 0 -11.12 4.64 -11.12 11.24 s5.4 11.24 11.12 11.24 c2.56 0 5.12 -0.96 7.08 -2.56 z"></path></g>
			</g>
		</svg>
	